<?xml version="1.0" encoding="utf-8"?>
<!-- Generator: Adobe Illustrator 19.0.0, SVG Export Plug-In . SVG Version: 6.00 Build 0)  -->
<svg version="1.1" xmlns="http://www.w3.org/2000/svg" xmlns:xlink="http://www.w3.org/1999/xlink" x="0px" y="0px"
	 viewBox="0 0 841.9 595.3" style="enable-background:new 0 0 841.9 595.3;" xml:space="preserve">
<style type="text/css">
	.st0{display:none;}
	.st1{display:inline;fill:none;stroke:#231F20;stroke-miterlimit:10;}
	.st2{fill:none;stroke:#231F20;stroke-miterlimit:10;}
</style>
<g id="Layer_2" class="st0">
	<polygon id="XMLID_12_" class="st1" points="185.9,76.9 17.6,272.1 17.6,8 	"/>
	<polygon id="XMLID_14_" class="st1" points="6,156.6 101.8,215.7 53.9,341 	"/>
	<polygon id="XMLID_15_" class="st1" points="820.2,42 711.9,179 820.2,289.1 	"/>
	<polygon id="XMLID_16_" class="st1" points="839.9,272.1 644.8,422.4 820.2,525.4 	"/>
	<polygon id="XMLID_17_" class="st1" points="711.9,280.1 732.5,386.6 796,324 	"/>
	<polygon id="XMLID_18_" class="st1" points="165.2,537.1 38.3,478.3 70.9,392 	"/>
	<polygon id="XMLID_19_" class="st1" points="640.3,18.7 689.5,93 754,12.5 	"/>
</g>
<g id="Layer_2_copy" class="st0">
	<polygon id="XMLID_25_" class="st1" points="816,568 49,568 816,12.5 	"/>
	<polygon id="XMLID_24_" class="st1" points="99,12.5 111,568 87,568 	"/>
	<polygon id="XMLID_23_" class="st1" points="145.5,568 130,12.5 161,12.5 	"/>
	<polygon id="XMLID_22_" class="st1" points="804,12.5 763,12.5 789,568 	"/>
	<polygon id="XMLID_21_" class="st1" points="32.5,12.5 53.1,568 81,12.5 	"/>
	<polygon id="XMLID_20_" class="st1" points="816,301.5 700,12.5 700,568 	"/>
	<polygon id="XMLID_11_" class="st1" points="728,568 754,568 741,12.5 	"/>
</g>
<g id="Layer_2_copy_2" class="st0">
	<polygon id="XMLID_32_" class="st1" points="672,413 161,444 116,279 	"/>
	<polygon id="XMLID_31_" class="st1" points="804,347 48,412 653,433 	"/>
	<polygon id="XMLID_30_" class="st1" points="145.5,458 25,421 82,357 	"/>
	<polygon id="XMLID_29_" class="st1" points="800,444 64,347 789,458 	"/>
	<polygon id="XMLID_28_" class="st1" points="622.4,419 660.5,458 706.4,393 	"/>
	<polygon id="XMLID_27_" class="st1" points="525,407.5 41,467 606,467 	"/>
	<polygon id="XMLID_26_" class="st1" points="702,458 735,439.5 716,421 	"/>
</g>
<g id="Layer_2_copy_3" class="st0">
	<polygon id="XMLID_39_" class="st1" points="814,58 30,87 809,34 	"/>
	<polygon id="XMLID_38_" class="st1" points="30,105 69,486 452,439.5 	"/>
	<polygon id="XMLID_37_" class="st1" points="30,58 30,25 809,18 	"/>
	<polygon id="XMLID_36_" class="st1" points="800,444 792,67 274,425.5 	"/>
	<polygon id="XMLID_35_" class="st1" points="54.8,230 121,156 138.8,204 	"/>
	<polygon id="XMLID_34_" class="st1" points="809,18 30,393 789,458 	"/>
	<polygon id="XMLID_33_" class="st1" points="714,295.5 772,280 735,251 	"/>
</g>
<g id="Layer_2_copy_4" class="st0">
	<polygon id="XMLID_55_" class="st1" points="830,58 743,134 809,34 	"/>
	<polygon id="XMLID_54_" class="st1" points="814,176 731,152 602,319.2 	"/>
	<polygon id="XMLID_53_" class="st1" points="672,253 757,319.2 584,375 	"/>
	<polygon id="XMLID_43_" class="st1" points="226,375 123,178 48,207 	"/>
	<polygon id="XMLID_42_" class="st1" points="646,201 761,78 786,145 	"/>
	<polygon id="XMLID_41_" class="st1" points="134.3,230.4 21,297.6 183,344.2 	"/>
	<polygon id="XMLID_40_" class="st1" points="108,201 134.3,259.9 97.3,249 	"/>
</g>
<g id="Layer_2_copy_5">
	<polygon id="XMLID_62_" class="st2" points="16,428 21,62 823,75 	"/>
	<polygon id="XMLID_61_" class="st2" points="777,412 16,428 803,480 	"/>
	<polygon id="XMLID_60_" class="st2" points="16,494 821,391 803,480 	"/>
	<polygon id="XMLID_59_" class="st2" points="829,93 72,22 21,62 	"/>
	<polygon id="XMLID_58_" class="st2" points="16,428 21,468 803,480 	"/>
	<polygon id="XMLID_57_" class="st2" points="21,468 16,494 777,412 	"/>
	<polygon id="XMLID_56_" class="st2" points="72,22 823,75 829,93 	"/>
</g>
</svg>
